<svg version="1.1" id="Layer_1" xmlns="http://www.w3.org/2000/svg" xmlns:xlink="http://www.w3.org/1999/xlink" x="0px" y="0px"
	 width="100%" viewBox="0 0 214 235" enable-background="new 0 0 214 235" xml:space="preserve">
<path fill="#BEC5D1" opacity="1.000000" stroke="none" 
	d="
M85.000000,1.000000 
	C93.020897,1.000000 101.041801,1.000000 109.714874,1.374141 
	C127.212822,3.114102 142.804794,8.385533 157.240784,17.060978 
	C182.144928,32.027363 199.682663,53.098141 208.934860,80.723984 
	C211.475174,88.308975 213.005966,96.232056 215.000000,104.000000 
	C215.000000,113.354225 215.000000,122.708458 214.629852,132.708633 
	C210.285965,164.602448 195.594559,189.825272 171.763657,210.048096 
	C169.178635,207.916565 169.476898,206.576416 170.992554,204.094894 
	C172.364685,201.848328 172.488724,198.311722 171.969284,195.570114 
	C171.308487,192.082382 168.152756,190.958923 164.714554,190.993988 
	C161.605011,191.025681 158.494904,191.000671 155.238052,191.000671 
	C155.238052,199.943924 155.238052,208.354462 155.238052,216.922287 
	C156.957855,216.922287 158.440216,216.922287 160.110962,217.114517 
	C160.429764,217.429962 160.560196,217.553192 160.457184,217.935562 
	C147.199997,226.215485 133.359940,232.059235 118.079079,234.142426 
	C117.643082,234.201859 117.356339,235.356186 117.000000,236.000000 
	C116.555557,236.000000 116.111107,236.000000 115.304932,235.605530 
	C113.295464,235.474045 111.647728,235.737015 110.000000,236.000000 
	C101.979103,236.000000 93.958199,236.000000 85.313858,235.644684 
	C83.126945,235.526245 81.563469,235.763123 80.000000,236.000000 
	C79.555557,236.000000 79.111107,236.000000 78.610123,235.643066 
	C77.549240,234.857849 76.581673,234.209305 75.534988,234.034561 
	C61.726231,231.729034 49.067455,226.392838 37.053787,219.409134 
	C35.805950,218.683746 34.192238,217.207520 34.145149,216.024078 
	C33.869564,209.098083 34.009911,202.155533 34.009911,195.282104 
	C42.036289,194.698685 42.036289,194.698685 41.180813,191.250336 
	C34.870796,191.250336 28.586069,191.250336 22.187016,191.250336 
	C21.268017,197.785172 27.263496,193.298523 28.720783,195.685913 
	C28.720783,201.593369 28.720783,207.474121 28.720783,213.795441 
	C19.309254,206.784973 10.753741,199.659012 4.446694,189.618439 
	C9.010365,188.549988 12.898664,187.639664 17.573435,186.545212 
	C16.745155,160.159653 15.921189,133.911514 15.065637,106.657127 
	C16.198143,107.937973 16.712208,108.249344 16.790705,108.646736 
	C21.552023,132.751419 26.229090,156.873077 31.148829,180.945160 
	C31.396423,182.156647 33.845821,183.926285 35.044876,183.764740 
	C40.982704,182.964767 46.844807,181.602722 52.921360,180.401688 
	C57.115479,156.678101 61.323318,132.876923 65.531158,109.075752 
	C65.847687,109.137169 66.164215,109.198593 66.480743,109.260017 
	C66.480743,132.088882 66.480743,154.917740 66.480743,178.113007 
	C73.244408,176.961121 79.939247,175.820969 87.030136,174.613358 
	C87.030136,172.888550 87.030144,171.252853 87.030144,169.617157 
	C87.030174,137.133591 86.977470,104.649849 87.096252,72.166725 
	C87.111282,68.058243 86.709763,65.382484 81.560913,65.862076 
	C79.410530,66.062363 77.157303,64.848640 74.918564,64.467285 
	C67.766151,63.248924 60.598621,62.119335 53.408241,60.950809 
	C50.260330,82.721260 47.193275,103.932487 44.126225,125.143723 
	C43.809021,125.096550 43.491817,125.049385 43.174614,125.002220 
	C40.024441,102.390717 36.874268,79.779213 33.749783,57.352097 
	C31.544899,57.024803 29.762283,56.786186 27.988777,56.492558 
	C18.991219,55.002892 9.996023,53.498943 1.000000,52.000000 
	C1.000000,52.000000 1.000000,51.500000 1.329866,51.141026 
	C8.526206,40.177200 17.362108,31.446688 27.510210,24.043194 
	C38.603970,15.949803 50.481655,9.326834 63.932461,5.965570 
	C70.931526,4.216551 77.976021,2.649337 85.000000,1.000000 
M93.103600,68.906769 
	C93.103600,77.519096 93.103600,86.131416 93.103600,94.818077 
	C97.308426,95.244736 101.052910,95.887489 104.804779,95.933907 
	C108.823746,95.983627 110.125565,97.510895 110.088478,101.595245 
	C109.897873,122.585640 110.000183,143.578690 110.000206,164.570816 
	C110.000206,166.329865 110.000206,168.088913 110.000206,170.405746 
	C115.597229,169.522858 120.405350,168.538925 125.263130,168.075104 
	C128.666046,167.750214 130.110275,166.678391 130.078751,162.955872 
	C129.910843,143.131393 129.999786,123.304756 129.999847,103.478867 
	C129.999863,101.709045 129.999847,99.939224 129.999847,98.386086 
	C134.607849,98.644264 138.625137,98.869347 142.684067,99.096764 
	C142.684067,90.978378 142.684067,83.570381 142.684067,76.244080 
	C135.285370,74.986069 128.210907,73.750862 121.124794,72.586372 
	C111.971336,71.082153 102.808601,69.634438 93.103600,68.906769 
M164.850266,150.644409 
	C165.562393,151.019882 166.795380,151.286087 166.900818,151.788818 
	C167.513641,154.710419 167.861374,157.687637 168.279556,160.516342 
	C171.361359,159.967407 174.073517,159.332413 176.822144,159.039139 
	C179.368057,158.767456 180.206757,157.896286 179.689392,155.173996 
	C178.290146,147.811401 177.114594,140.401947 176.029907,132.984802 
	C173.619492,116.502396 171.392059,99.992569 168.835739,83.533417 
	C168.628815,82.201111 166.644333,80.505470 165.190247,80.133186 
	C161.656479,79.228455 157.948563,79.003922 153.986420,78.460922 
	C149.006973,107.321457 144.067642,135.949509 139.016586,165.225159 
	C141.933533,164.758820 144.291489,164.147385 146.671219,164.045929 
	C153.457352,163.756638 155.114273,162.874359 154.934586,155.250946 
	C154.860016,152.087158 156.473404,151.221954 159.032425,151.032990 
	C160.690262,150.910553 162.361343,150.967682 164.850266,150.644409 
M49.999752,212.466766 
	C49.999752,210.696564 49.999752,208.926361 49.999752,207.492706 
	C54.702385,205.699921 55.152496,208.724792 56.016994,211.405151 
	C57.168003,214.973801 58.225082,218.853973 63.496635,216.418137 
	C62.119308,213.129242 60.738499,209.832031 59.320465,206.445923 
	C59.530682,206.160507 59.779301,205.712570 60.128597,205.366135 
	C62.967545,202.550522 63.944912,199.468399 62.194515,195.575073 
	C60.484150,191.770798 57.493248,190.870972 53.756969,190.983688 
	C50.975067,191.067627 48.188599,191.000244 45.284042,191.000244 
	C45.284042,199.919525 45.284042,208.323761 45.284042,216.650970 
	C48.469162,217.499008 50.534164,217.164352 49.999752,212.466766 
M115.980614,215.310242 
	C116.230240,212.186356 114.651405,207.921143 120.260353,208.087997 
	C121.703484,211.156693 123.068069,214.058350 124.478172,217.056793 
	C126.436020,216.938416 128.144897,216.835114 130.327637,216.703140 
	C129.081924,214.274338 128.273987,212.309662 127.135376,210.560226 
	C124.772842,206.930237 124.254570,203.618164 126.926903,199.689148 
	C128.435837,197.470627 128.664780,194.381531 129.601578,191.244980 
	C127.174614,191.244980 125.766663,191.244980 124.389595,191.244980 
	C123.339066,199.543533 121.671867,201.903244 115.786880,203.213089 
	C115.786880,199.191895 115.786880,195.245499 115.786880,191.010544 
	C114.046051,191.107498 112.659279,191.184723 111.344391,191.257950 
	C111.344391,200.050842 111.344391,208.450775 111.344391,217.308105 
	C113.141098,216.870438 114.508537,216.537338 115.980614,215.310242 
M67.989632,208.427643 
	C67.236259,211.123016 66.482887,213.818405 65.509972,217.299240 
	C68.030464,216.885406 70.628304,216.783081 70.669403,216.403732 
	C71.336189,210.248871 75.803833,212.278030 79.232986,212.077759 
	C81.344269,217.302673 81.344269,217.302673 85.952568,216.315445 
	C83.540733,207.937759 81.131195,199.568069 78.739647,191.260864 
	C74.914085,190.653519 72.145752,190.444458 71.603317,195.510468 
	C71.163391,199.619080 69.262802,203.571289 67.989632,208.427643 
M150.829651,216.397812 
	C151.251297,214.330750 151.111069,212.829269 148.309494,212.966156 
	C145.032425,213.126251 141.741531,213.003571 138.254837,213.003571 
	C138.254837,210.505066 138.254837,208.455292 138.254837,205.931702 
	C141.575165,205.931702 144.650787,205.931702 148.280640,205.931702 
	C146.905182,198.644730 140.695084,204.211914 138.213745,201.289597 
	C138.213745,199.357544 138.213745,197.418289 138.213745,195.003723 
	C142.483917,195.003723 146.563400,195.003723 150.642883,195.003723 
	C150.921585,194.535980 151.200272,194.068253 151.478958,193.600510 
	C150.501572,192.735992 149.563004,191.182419 148.540176,191.124817 
	C143.804901,190.858124 139.046234,191.006958 134.337311,191.006958 
	C134.337311,200.005035 134.337311,208.374329 134.337311,216.903427 
	C139.800629,216.903427 144.928299,216.903427 150.829651,216.397812 
M93.546158,192.885223 
	C87.876671,196.516129 86.355705,204.199570 89.867210,211.470062 
	C91.980461,215.845505 99.244080,218.554092 104.419685,216.779465 
	C107.124939,215.851868 107.900871,214.116501 106.102661,211.566696 
	C104.941444,211.717133 103.730873,212.241074 102.806480,211.925812 
	C99.876366,210.926575 95.905792,210.359406 94.511131,208.212921 
	C93.115585,206.065063 93.468521,201.836746 94.622589,199.208771 
	C96.166565,195.692886 99.683876,195.034607 103.485825,196.705475 
	C104.260971,197.046143 105.674118,195.935059 106.793167,195.493210 
	C106.191628,194.326477 105.648865,192.194839 104.978737,192.154007 
	C101.385612,191.935135 97.760742,192.237122 93.546158,192.885223 
z"/>
<path fill="#222536" opacity="1.000000" stroke="none" 
	d="
M1.000000,52.468658 
	C9.996023,53.498943 18.991219,55.002892 27.988777,56.492558 
	C29.762283,56.786186 31.544899,57.024803 33.749783,57.352097 
	C36.874268,79.779213 40.024441,102.390717 43.174614,125.002220 
	C43.491817,125.049385 43.809021,125.096550 44.126225,125.143723 
	C47.193275,103.932487 50.260330,82.721260 53.408241,60.950809 
	C60.598621,62.119335 67.766151,63.248924 74.918564,64.467285 
	C77.157303,64.848640 79.410530,66.062363 81.560913,65.862076 
	C86.709763,65.382484 87.111282,68.058243 87.096252,72.166725 
	C86.977470,104.649849 87.030174,137.133591 87.030144,169.617157 
	C87.030144,171.252853 87.030136,172.888550 87.030136,174.613358 
	C79.939247,175.820969 73.244408,176.961121 66.480743,178.113007 
	C66.480743,154.917740 66.480743,132.088882 66.480743,109.260017 
	C66.164215,109.198593 65.847687,109.137169 65.531158,109.075752 
	C61.323318,132.876923 57.115479,156.678101 52.921360,180.401688 
	C46.844807,181.602722 40.982704,182.964767 35.044876,183.764740 
	C33.845821,183.926285 31.396423,182.156647 31.148829,180.945160 
	C26.229090,156.873077 21.552023,132.751419 16.790705,108.646736 
	C16.712208,108.249344 16.198143,107.937973 15.065637,106.657127 
	C15.921189,133.911514 16.745155,160.159653 17.573435,186.545212 
	C12.898664,187.639664 9.010365,188.549988 4.446694,189.618439 
	C10.753741,199.659012 19.309254,206.784973 28.720783,213.795441 
	C28.720783,207.474121 28.720783,201.593369 28.720783,195.685913 
	C27.263496,193.298523 21.268017,197.785172 22.187016,191.250336 
	C28.586069,191.250336 34.870796,191.250336 41.180813,191.250336 
	C42.036289,194.698685 42.036289,194.698685 34.009911,195.282104 
	C34.009911,202.155533 33.869564,209.098083 34.145149,216.024078 
	C34.192238,217.207520 35.805950,218.683746 37.053787,219.409134 
	C49.067455,226.392838 61.726231,231.729034 75.534988,234.034561 
	C76.581673,234.209305 77.549240,234.857849 78.276794,235.643066 
	C52.376415,236.000000 26.752831,236.000000 1.000000,236.000000 
	C1.000000,174.979156 1.000000,113.958237 1.000000,52.468658 
z"/>
<path fill="#222536" opacity="1.000000" stroke="none" 
	d="
M159.922592,216.922287 
	C158.440216,216.922287 156.957855,216.922287 155.238052,216.922287 
	C155.238052,208.354462 155.238052,199.943924 155.238052,191.000671 
	C158.494904,191.000671 161.605011,191.025681 164.714554,190.993988 
	C168.152756,190.958923 171.308487,192.082382 171.969284,195.570114 
	C172.488724,198.311722 172.364685,201.848328 170.992554,204.094894 
	C169.476898,206.576416 169.178635,207.916565 171.763657,210.048096 
	C195.594559,189.825272 210.285965,164.602448 214.629852,133.177292 
	C215.000000,167.258453 215.000000,201.516891 215.000000,236.000000 
	C182.646118,236.000000 150.291718,236.000000 117.468658,236.000000 
	C117.356339,235.356186 117.643082,234.201859 118.079079,234.142426 
	C133.359940,232.059235 147.199997,226.215485 160.724075,217.725250 
	C163.003006,216.195511 164.781631,215.135269 166.795044,213.935059 
	C165.088058,211.133850 166.750732,205.387894 159.922592,207.560486 
	C159.922592,210.718811 159.922592,213.820557 159.922592,216.922287 
M167.921539,197.771515 
	C165.630035,196.566238 163.338531,195.360962 160.241882,193.732208 
	C160.241882,197.868500 160.241882,200.261612 160.241882,202.837296 
	C163.910187,203.012390 167.641647,203.934921 167.921539,197.771515 
z"/>
<path fill="#222536" opacity="1.000000" stroke="none" 
	d="
M215.000000,103.531342 
	C213.005966,96.232056 211.475174,88.308975 208.934860,80.723984 
	C199.682663,53.098141 182.144928,32.027363 157.240784,17.060978 
	C142.804794,8.385533 127.212822,3.114102 110.183517,1.374141 
	C144.926239,1.000000 179.852463,1.000000 215.000000,1.000000 
	C215.000000,35.020573 215.000000,69.041626 215.000000,103.531342 
z"/>
<path fill="#222536" opacity="1.000000" stroke="none" 
	d="
M84.531342,1.000000 
	C77.976021,2.649337 70.931526,4.216551 63.932461,5.965570 
	C50.481655,9.326834 38.603970,15.949803 27.510210,24.043194 
	C17.362108,31.446688 8.526206,40.177200 1.329866,50.891026 
	C1.000000,34.387928 1.000000,17.775852 1.000000,1.000000 
	C28.687346,1.000000 56.375015,1.000000 84.531342,1.000000 
z"/>
<path fill="#222536" opacity="1.000000" stroke="none" 
	d="
M80.416664,236.000000 
	C81.563469,235.763123 83.126945,235.526245 84.845207,235.644684 
	C83.611107,236.000000 82.222221,236.000000 80.416664,236.000000 
z"/>
<path fill="#222536" opacity="1.000000" stroke="none" 
	d="
M110.416664,236.000000 
	C111.647728,235.737015 113.295464,235.474045 114.971596,235.605530 
	C113.611107,236.000000 112.222221,236.000000 110.416664,236.000000 
z"/>
<path fill="#222536" opacity="1.000000" stroke="none" 
	d="
M93.376724,68.534576 
	C102.808601,69.634438 111.971336,71.082153 121.124794,72.586372 
	C128.210907,73.750862 135.285370,74.986069 142.684067,76.244080 
	C142.684067,83.570381 142.684067,90.978378 142.684067,99.096764 
	C138.625137,98.869347 134.607849,98.644264 129.999847,98.386086 
	C129.999847,99.939224 129.999863,101.709045 129.999847,103.478867 
	C129.999786,123.304756 129.910843,143.131393 130.078751,162.955872 
	C130.110275,166.678391 128.666046,167.750214 125.263130,168.075104 
	C120.405350,168.538925 115.597229,169.522858 110.000206,170.405746 
	C110.000206,168.088913 110.000206,166.329865 110.000206,164.570816 
	C110.000183,143.578690 109.897873,122.585640 110.088478,101.595245 
	C110.125565,97.510895 108.823746,95.983627 104.804779,95.933907 
	C101.052910,95.887489 97.308426,95.244736 93.103600,94.818077 
	C93.103600,86.131416 93.103600,77.519096 93.376724,68.534576 
z"/>
<path fill="#222536" opacity="1.000000" stroke="none" 
	d="
M164.438385,150.794373 
	C162.361343,150.967682 160.690262,150.910553 159.032425,151.032990 
	C156.473404,151.221954 154.860016,152.087158 154.934586,155.250946 
	C155.114273,162.874359 153.457352,163.756638 146.671219,164.045929 
	C144.291489,164.147385 141.933533,164.758820 139.016586,165.225159 
	C144.067642,135.949509 149.006973,107.321457 153.986420,78.460922 
	C157.948563,79.003922 161.656479,79.228455 165.190247,80.133186 
	C166.644333,80.505470 168.628815,82.201111 168.835739,83.533417 
	C171.392059,99.992569 173.619492,116.502396 176.029907,132.984802 
	C177.114594,140.401947 178.290146,147.811401 179.689392,155.173996 
	C180.206757,157.896286 179.368057,158.767456 176.822144,159.039139 
	C174.073517,159.332413 171.361359,159.967407 168.279556,160.516342 
	C167.861374,157.687637 167.513641,154.710419 166.900818,151.788818 
	C166.795380,151.286087 165.562393,151.019882 164.438385,150.794373 
M161.498093,132.996704 
	C162.331085,132.125870 163.910049,131.226273 163.877731,130.388824 
	C163.643036,124.305244 163.154129,118.227539 162.582336,112.163383 
	C162.418655,110.427559 161.717697,108.742393 161.263107,107.033997 
	C159.626236,114.950745 158.736633,122.706352 158.128021,130.483948 
	C158.067856,131.252914 159.726379,132.156357 161.498093,132.996704 
z"/>
<path fill="#222536" opacity="1.000000" stroke="none" 
	d="
M49.999588,212.924698 
	C50.534164,217.164352 48.469162,217.499008 45.284042,216.650970 
	C45.284042,208.323761 45.284042,199.919525 45.284042,191.000244 
	C48.188599,191.000244 50.975067,191.067627 53.756969,190.983688 
	C57.493248,190.870972 60.484150,191.770798 62.194515,195.575073 
	C63.944912,199.468399 62.967545,202.550522 60.128597,205.366135 
	C59.779301,205.712570 59.530682,206.160507 59.320465,206.445923 
	C60.738499,209.832031 62.119308,213.129242 63.496635,216.418137 
	C58.225082,218.853973 57.168003,214.973801 56.016994,211.405151 
	C55.152496,208.724792 54.702385,205.699921 49.999752,207.492706 
	C49.999752,208.926361 49.999752,210.696564 49.999588,212.924698 
M57.921101,200.230972 
	C57.381165,195.081909 56.587555,194.581390 50.245285,195.499817 
	C50.245285,197.874847 50.245285,200.268448 50.245285,203.859940 
	C53.071629,202.727814 55.297935,201.836044 57.921101,200.230972 
z"/>
<path fill="#222536" opacity="1.000000" stroke="none" 
	d="
M115.928299,215.757233 
	C114.508537,216.537338 113.141098,216.870438 111.344391,217.308105 
	C111.344391,208.450775 111.344391,200.050842 111.344391,191.257950 
	C112.659279,191.184723 114.046051,191.107498 115.786880,191.010544 
	C115.786880,195.245499 115.786880,199.191895 115.786880,203.213089 
	C121.671867,201.903244 123.339066,199.543533 124.389595,191.244980 
	C125.766663,191.244980 127.174614,191.244980 129.601578,191.244980 
	C128.664780,194.381531 128.435837,197.470627 126.926903,199.689148 
	C124.254570,203.618164 124.772842,206.930237 127.135376,210.560226 
	C128.273987,212.309662 129.081924,214.274338 130.327637,216.703140 
	C128.144897,216.835114 126.436020,216.938416 124.478172,217.056793 
	C123.068069,214.058350 121.703484,211.156693 120.260353,208.087997 
	C114.651405,207.921143 116.230240,212.186356 115.928299,215.757233 
z"/>
<path fill="#222536" opacity="1.000000" stroke="none" 
	d="
M67.999840,208.010254 
	C69.262802,203.571289 71.163391,199.619080 71.603317,195.510468 
	C72.145752,190.444458 74.914085,190.653519 78.739647,191.260864 
	C81.131195,199.568069 83.540733,207.937759 85.952568,216.315445 
	C81.344269,217.302673 81.344269,217.302673 79.232986,212.077759 
	C75.803833,212.278030 71.336189,210.248871 70.669403,216.403732 
	C70.628304,216.783081 68.030464,216.885406 65.509972,217.299240 
	C66.482887,213.818405 67.236259,211.123016 67.999840,208.010254 
M78.326492,206.879211 
	C77.607620,203.986252 76.888741,201.093277 76.169868,198.200317 
	C75.911987,198.257721 75.654106,198.315140 75.396225,198.372543 
	C74.641457,201.426224 73.886696,204.479904 73.007706,208.036179 
	C75.122070,207.880707 76.885460,207.751038 78.326492,206.879211 
z"/>
<path fill="#222536" opacity="1.000000" stroke="none" 
	d="
M150.442810,216.650620 
	C144.928299,216.903427 139.800629,216.903427 134.337311,216.903427 
	C134.337311,208.374329 134.337311,200.005035 134.337311,191.006958 
	C139.046234,191.006958 143.804901,190.858124 148.540176,191.124817 
	C149.563004,191.182419 150.501572,192.735992 151.478958,193.600510 
	C151.200272,194.068253 150.921585,194.535980 150.642883,195.003723 
	C146.563400,195.003723 142.483917,195.003723 138.213745,195.003723 
	C138.213745,197.418289 138.213745,199.357544 138.213745,201.289597 
	C140.695084,204.211914 146.905182,198.644730 148.280640,205.931702 
	C144.650787,205.931702 141.575165,205.931702 138.254837,205.931702 
	C138.254837,208.455292 138.254837,210.505066 138.254837,213.003571 
	C141.741531,213.003571 145.032425,213.126251 148.309494,212.966156 
	C151.111069,212.829269 151.251297,214.330750 150.442810,216.650620 
z"/>
<path fill="#222536" opacity="1.000000" stroke="none" 
	d="
M93.846497,192.622208 
	C97.760742,192.237122 101.385612,191.935135 104.978737,192.154007 
	C105.648865,192.194839 106.191628,194.326477 106.793167,195.493195 
	C105.674118,195.935059 104.260971,197.046143 103.485825,196.705475 
	C99.683876,195.034607 96.166565,195.692886 94.622589,199.208771 
	C93.468521,201.836746 93.115585,206.065063 94.511131,208.212921 
	C95.905792,210.359406 99.876366,210.926575 102.806480,211.925812 
	C103.730873,212.241074 104.941444,211.717133 106.102661,211.566696 
	C107.900871,214.116501 107.124939,215.851868 104.419685,216.779465 
	C99.244080,218.554092 91.980461,215.845505 89.867210,211.470062 
	C86.355705,204.199570 87.876671,196.516129 93.846497,192.622208 
z"/>
<path fill="#BEC5D1" opacity="1.000000" stroke="none" 
	d="
M167.953979,198.183380 
	C167.641647,203.934921 163.910187,203.012390 160.241882,202.837296 
	C160.241882,200.261612 160.241882,197.868500 160.241882,193.732208 
	C163.338531,195.360962 165.630035,196.566238 167.953979,198.183380 
z"/>
<path fill="#BEC5D1" opacity="1.000000" stroke="none" 
	d="
M160.110962,217.114517 
	C159.922592,213.820557 159.922592,210.718811 159.922592,207.560486 
	C166.750732,205.387894 165.088058,211.133850 166.795044,213.935059 
	C164.781631,215.135269 163.003006,216.195511 160.957504,217.466095 
	C160.560196,217.553192 160.429764,217.429962 160.110962,217.114517 
z"/>
<path fill="#BDC5D1" opacity="1.000000" stroke="none" 
	d="
M161.042633,132.997040 
	C159.726379,132.156357 158.067856,131.252914 158.128021,130.483948 
	C158.736633,122.706352 159.626236,114.950745 161.263107,107.033997 
	C161.717697,108.742393 162.418655,110.427559 162.582336,112.163383 
	C163.154129,118.227539 163.643036,124.305244 163.877731,130.388824 
	C163.910049,131.226273 162.331085,132.125870 161.042633,132.997040 
z"/>
<path fill="#BEC5D1" opacity="1.000000" stroke="none" 
	d="
M57.722672,200.587616 
	C55.297935,201.836044 53.071629,202.727814 50.245285,203.859940 
	C50.245285,200.268448 50.245285,197.874847 50.245285,195.499817 
	C56.587555,194.581390 57.381165,195.081909 57.722672,200.587616 
z"/>
<path fill="#BEC5D1" opacity="1.000000" stroke="none" 
	d="
M78.487671,207.250305 
	C76.885460,207.751038 75.122070,207.880707 73.007706,208.036179 
	C73.886696,204.479904 74.641457,201.426224 75.396225,198.372543 
	C75.654106,198.315140 75.911987,198.257721 76.169868,198.200317 
	C76.888741,201.093277 77.607620,203.986252 78.487671,207.250305 
z"/>
</svg>